<?xml version="1.0" encoding="UTF-8"?>
<svg id="Layer_1" data-name="Layer 1" xmlns="http://www.w3.org/2000/svg" width="20" height="18" version="1.1" viewBox="0 0 20 18">
  <defs>
    <style>
      .cls-1 {
        fill: #ffc36b;
      }

      .cls-1, .cls-2, .cls-3, .cls-4 {
        stroke-width: 0px;
      }

      .cls-2 {
        fill: #000;
      }

      .cls-3 {
        fill: #ef1e26;
      }

      .cls-4 {
        fill: #fff;
      }
    </style>
  </defs>
  <path class="cls-2" d="M19,2v-1h-1V0h-5v1h-1v1h-4v-1h-1V0H2v1h-1v1H0v2h1v1h1v1h-1v3h1v1h1v1h-1v1h-1v2h1v1h-1v2h4v1h3v-1h1v-1h2v1h1v1h3v-1h4v-2h-1v-1h1v-2h-1v-1h-1v-1h1v-1h1v-3h-1v-1h1v-1h1v-2h-1Z"/>
  <path class="cls-4" d="M18,3h-1v1h-3v-1h-2v1h1v1h5v-1h1v-1h-1ZM6,3v1h-3v-1H1v1h1v1h5v-1h1v-1h-2Z"/>
  <g>
    <path class="cls-1" d="M17,1h-4v1h5v-1h-1ZM10,5h2v-1h-1v-1h-2v1h-1v1h2ZM4,2h3v-1H2v1h2ZM9,13v2h2v-2h-2Z"/>
    <path class="cls-1" d="M16,12v-2H4v2h-2v2h2v1h-2v1h3v-3h1v3h-1v1h3v-4h1v-1h2v1h1v4h3v-1h-1v-3h1v3h3v-1h-2v-1h2v-2h-2Z"/>
  </g>
  <path class="cls-3" d="M17,6H2v3h16v-3h-1ZM17,8H3v-1h14v1Z"/>
</svg>